<svg id="图层_1" data-name="图层 1" xmlns="http://www.w3.org/2000/svg">
  <g id="图层_3" data-name="图层 3">
    <path d="M142.94,126.22c1,1.2,2.3,1.8,5.6,3.1a21.4,21.4,0,0,0,5.6,1.5c.9-.3,1.8-.6,2.7-1l71.1,19.5c2.7-2.3,5.4-4.5,8.1-6.8q-39.3-10.65-78.7-21.4c.1-1.4.3-2.8.4-4.2-.1-.6-.3-1.2-.4-1.7a35,35,0,0,0,1.7-4.3,32.78,32.78,0,0,0,1.6-7.8,8,8,0,0,0,2.9-2.1c3.2-3.8,1.4-9.4,1.2-10.1-1.1-3.1-3.1-4.9-7.3-8.1-7.9-6.1-12.3-8.8-18.7-13.2-8.5-5.9-9.1-6.8-12-7.3-3.3-.5-5.5.3-12.9.2-3.1,0-5.7-.2-7.3-.3l.3-3.9a59.69,59.69,0,0,0,17.3-7.2,58.53,58.53,0,0,0,9-6.8,38.51,38.51,0,0,0,14.7,1.2,37.84,37.84,0,0,0,12.8-3.7,33.9,33.9,0,0,1-20.5,2.1,47.44,47.44,0,0,1-5.3-1.7,4.88,4.88,0,0,0,.3-.7,5.27,5.27,0,0,0,.3-1.2,41.61,41.61,0,0,0,4.4-.6,38.45,38.45,0,0,0,6.4-1.8,17.64,17.64,0,0,1-5.7.7,18,18,0,0,1-4.4-.6c0-.3.1-.6.1-.8,3-.2,6.3-.2,9.9-.1,3.9.2,7.5.5,10.8,1a92.85,92.85,0,0,0-15.4-2.3c-2.1-.1-4.1-.2-6.1-.1a15.89,15.89,0,0,0-3.8-2.2,17,17,0,0,0-4.5-1.1c1.8,0,3.6-.1,5.5,0a89,89,0,0,1,10.9.9c-10.8-2-17.8-2.1-22.2-1.7-2.4.2-7.2.8-12.2-1.4-1.6-.7-1.8-1.1-4-2-2.6-1.1-6-2.6-10.1-2.1a16.32,16.32,0,0,0-6.5,2.4,5.27,5.27,0,0,1,1-1.4,6.57,6.57,0,0,1,2.4-1.6,10.72,10.72,0,0,0-7.3,4.4,9.75,9.75,0,0,0-1.7,5.4c-.7.6-1.4,1.2-2.1,1.7-1.2.3-2.9.7-5,1.4-15.1,4.5-18.7,10-19.3,11.4a7.63,7.63,0,0,0-.6,2.7,7.1,7.1,0,0,0,.8,2.5c2.1,4.1,12.4,6.2,12.4,6.2A69.85,69.85,0,0,0,84,62.72a16.78,16.78,0,0,1,3,2.6,23.27,23.27,0,0,1,1.6,2,10.34,10.34,0,0,0-6.3.2,9.41,9.41,0,0,0-4.7,3.5c-2,3.1-1.2,6.6-.8,8.4.5,2.3,1.5,4.4,7.2,11.4,1.7,2.1,3.8,4.7,6.4,7.6a17.88,17.88,0,0,1-1.3,1.4,30.32,30.32,0,0,1-6.3.4,17.91,17.91,0,0,1-2.4-.2A2.77,2.77,0,0,0,79,99a4.11,4.11,0,0,0-2,0,2,2,0,0,0-1.1-2.1,1.64,1.64,0,0,0-1.6,0,1.62,1.62,0,0,0-.4-1c-.6-.6-1.8-.2-2.1-.1a3.12,3.12,0,0,0-1.7,1.4l-12.8-2.4a1.49,1.49,0,0,0-.1-.6,1.31,1.31,0,0,0-1.2-.6,8.79,8.79,0,0,0-.7-1.3,6.77,6.77,0,0,0-5.2-2.6,6.61,6.61,0,0,0-5.4,3.1,5.89,5.89,0,0,0-.3,5.3c1.3,2.8,4.6,3.1,5.1,3.2a6.16,6.16,0,0,0,4.3-1.3l11.5,2.4c1,.3,2.1.6,3.1,1v2a32.93,32.93,0,0,0,8.5,3.7,35.46,35.46,0,0,0,8.8,1.1,9.77,9.77,0,0,1,1.1,1.4c.8,1.2,1,1.8,1.4,1.8s.6-.7,1.3-1.6a7.28,7.28,0,0,1,1.7-1.5,15.55,15.55,0,0,0,2.3.8,25.82,25.82,0,0,0,2.6.8c-.1,1.5-.2,3-.3,4.4h-2.1c-1.1.6-2.9,1.6-5.3,2.8-8.3,4-11.9,4.2-20.7,8.1-7.5,3.3-9.3,5.2-10.1,6a23.76,23.76,0,0,0-5.4,10.1c-1.1,3.7-1,6.5-.8,12a5.7,5.7,0,0,0,.4,2.2c.8,1.9,2.4,2.3,4.7,4.4a16.85,16.85,0,0,1,2.1,2.3c.1,3.8.2,7.7.1,11.7,0,1.9-.1,3.7-.1,5.5l-3.9,3.6a29.89,29.89,0,0,1-8.6,6.3,29.44,29.44,0,0,1-4.3,1.7,16.11,16.11,0,0,0,3.2,2.8c.8.5,5.3,3.4,9.9,2.1.3-.1,1.9-.9,5.1-2.6,1.5-.8,2.8-1.5,3.7-1.9.2-.8.3-1.5.5-2.3a13,13,0,0,0,2.8,0,12.1,12.1,0,0,0,2-.4,14.59,14.59,0,0,0,5.4-3.1,13.92,13.92,0,0,0-.6-7.2c-.9-2.5-2.2-3.5-2.7-6.1a10.22,10.22,0,0,1,.3-5.1,25.07,25.07,0,0,1,12.5,3.4c4.5,2.7,5.7,5.5,10.6,9.6a44.51,44.51,0,0,0,12.3,7.2,36.91,36.91,0,0,1-7.7-21.9,38.09,38.09,0,0,1,4.3-17.3,39.1,39.1,0,0,1,6.4-9.1,107.87,107.87,0,0,1,16.5,14.1c12.7,13.2,19,19.8,21.9,27.4.6,1.5,2.1,5.9,6.2,7.8a11.26,11.26,0,0,0,5,.9c1.1,1.3,7.6,8.8,8.3,13.7a24.12,24.12,0,0,1,.5,4.7c-.1,1.8-.6,3.2.2,4.2.5.6,1,.4,1.5,1.1a4.81,4.81,0,0,1,.8,3.2c-.1,2.6-.3,5.1-.5,7.1a11.62,11.62,0,0,0,3.5,6.2c4.1,3.7,9.5,2.8,10.1,2.7a20,20,0,0,0,3.2-4.4c.7-1.3,3.1-6.2,1.5-11-.9-2.9-2.4-3.1-3.8-7.1a18,18,0,0,1-1-4.7,39.05,39.05,0,0,1-6.7-9.5,38.53,38.53,0,0,1-3.5-11.9,10.14,10.14,0,0,0,3.3-5.5c.6-3.1-.9-5.8-3.6-10.1-2.3-3.8-5.2-8.3-8.6-13.2a42.83,42.83,0,0,0,16.4,10.1,40.34,40.34,0,0,0,14.5,2c-.8-.1-6.3-1-8.8-5.7a11.72,11.72,0,0,1-1.2-4.3c-15.1-2.3-23.4-7.8-28.2-12.6-3.3-3.2-7.2-8.3-15.7-16-3.3-3-6-5.3-7.9-6.9,2.8.5,5.5,1.1,8.3,1.6C142.24,125.22,142.54,125.72,142.94,126.22ZM53,97.12a3.62,3.62,0,0,1-4.1,1.7,3.48,3.48,0,0,1-2.5-2.6,3.26,3.26,0,0,1,1.4-3.3,4,4,0,0,1,2.7-.6A3.7,3.7,0,0,1,53,94C52.94,94.12,53.84,95.62,53,97.12Zm56.8,13.6a55.07,55.07,0,0,0,6.8-1.1,19.73,19.73,0,0,0,4.9-1.8,14.72,14.72,0,0,0,2.2-1.1,13.5,13.5,0,0,1-3.2,3c-.6.4-2.4,1.3-7.8,1.8a57.9,57.9,0,0,1-6.8.1c-2.2-.1-5.1-.2-8.7-.6A93.26,93.26,0,0,0,109.84,110.72ZM95,100a62.34,62.34,0,0,0,3.1-6.8,54.71,54.71,0,0,0,2.2-7c-1.9-1.3-4.8-4.5-6.9-9.3a27.69,27.69,0,0,1-1.4-6.7,26.2,26.2,0,0,0,4.4,8.4,24.29,24.29,0,0,0,5.3,4.8,39.38,39.38,0,0,0,2.5-6.7,44,44,0,0,0,1.7-11.9c.3,2,2.9,6.3,2.5,9.9-.6,6.1-4,10-6.5,15.3C100.74,92.92,97.74,95.82,95,100Zm27.2,15.3c-1.1.9-2.8,1.8-8.1,2.2a64.88,64.88,0,0,1-9.2,0c-4.1-.3-8-.7-8-.8s3.2.1,9.3.1a71,71,0,0,0,9-.5,15.91,15.91,0,0,0,5.1-1.2,19.81,19.81,0,0,0,4.1-2.5A6.37,6.37,0,0,1,122.24,115.32Zm3.5-3.1a27.69,27.69,0,0,0-.2-3.3c-.2-1.7-.5-2.2-1-2.5a2,2,0,0,0-1-.2c-.2-2.2-.4-4.7-.4-7.3a65.45,65.45,0,0,1,1.2-12.5c0-.6-.1-2.9,1.2-3.6,1-.5,2.2.2,3.1.7,2.7,1.5,5.8,2.4,8.4,4.1,3.7,2.4,7.3,4.6,10.9,7a21.3,21.3,0,0,0,0,3.6c.1,1.8.3,2.5.8,3.1a4.84,4.84,0,0,0,1.2,1,41.25,41.25,0,0,1-.1,4.9,36.42,36.42,0,0,1-.7,5.2l-2.5,2.2c-1,1-2,1.9-2.8,2.8C137.84,115.52,131.74,113.92,125.74,112.22Z"/><path d="M55.84,100.12c-1.6.8-13.6,7-16.2,20.1-2.5,12.6,4.6,26.4,17.8,33-1.1-.2-14.3-3.2-19.6-16.2s1.9-24.2,2.7-25.5A29.08,29.08,0,0,1,55.84,100.12Z"/><path d="M43.94,168.92c-7.7-6.8-10.5-11.8-11.6-15.1a12.84,12.84,0,0,0-4.3-6.3c-1.3-.9-3.4-2-4.2-1.4-1,.9.6,4.2,1.3,5.5C26.84,155,31,161.32,43.94,168.92Z"/><path d="M43,185.42a44.15,44.15,0,0,1-21.8-16,44.82,44.82,0,0,1-8.5-26.1,122.51,122.51,0,0,0,.8,13.1c.2,1.5.4,3,.6,4.4a26.48,26.48,0,0,1-4.5-6.3c-8.8-16.4,1.3-36.1,3.2-39.6a44.18,44.18,0,0,0-8.7,22.6,44.68,44.68,0,0,0,5.2,25.1C19.54,181.32,40.24,184.92,43,185.42Z"/><path d="M163.24,182.82a130.78,130.78,0,0,0,28.2-21.1c8-7.8,9.6-11.5,10.4-13.9,4.3-12.3-2.7-24.4-5.2-28.8a49.9,49.9,0,0,0-24-20.9,51.38,51.38,0,0,1,19.3,25.5c1.6,4.7,5.5,16.5.6,28.2-2.2,5.2-6.1,9.1-13.9,17A149.9,149.9,0,0,1,163.24,182.82Z"/><path d="M187.24,203.12c9.6-2.8,22.9-8.4,33.1-20.7a78.58,78.58,0,0,0,13.5-25.7,38.17,38.17,0,0,1-6.5,12.4,37.08,37.08,0,0,1-5,5.3,34.85,34.85,0,0,0,4.6-8.5,37.6,37.6,0,0,0,2.1-17.3,61,61,0,0,1-3.4,14.6c-4.9,13-13.3,21-19,26.3A89.33,89.33,0,0,1,187.24,203.12Z"/><path d="M224.24,120.62a26.37,26.37,0,0,0-.1-13.8,27.12,27.12,0,0,0-6.2-10.3c-1.7-1.7-2.1-1.5-2.2-1.4-.6.4.4,3.1.8,4a35.4,35.4,0,0,0,4.6,8.2C222.84,109.82,224.54,113.82,224.24,120.62Z"/><path d="M210.34,104.42a75.62,75.62,0,0,0-12-17.3,74.75,74.75,0,0,0-21.4-16,71.67,71.67,0,0,1,17,15.7,72.82,72.82,0,0,1,14.7,38.4,43,43,0,0,0,.4-13.4,45,45,0,0,0-3.7-12.8,27.73,27.73,0,0,1,2.5,1.9A15.48,15.48,0,0,1,210.34,104.42Z"/>
  </g>
</svg>